<svg xmlns="http://www.w3.org/2000/svg" width="372" height="372" viewBox="0 0 372 372"><g><path fill="#006533" d="M186,0 C178.7,0 171.6,0.4 164.5,1.2 L170.9,60.1 L282,89.9 L311.6,200 L370.1,212.9 C371.4,204.1 372,195.2 372,186 C372,83.3 288.7,0 186,0 Z"/><path fill="#82B816" d="M221.2,317.2 L90,282 L54.8,150.8 L133.2,72.4 L126.4,9.8 C52.9,34.6 0,104.1 0,186 C0,288.7 83.3,372 186,372 C266,372 334.3,321.4 360.5,250.5 L301,237.4 L221.2,317.2 Z"/><g id="play"><path fill="#006533" d="M135.5,62.4 L32.7,3 C18.2,-5.4 0,5.1 0,21.9 L0,140 C0,156.8 18.2,167.3 32.7,158.9 L135.5,99.5 C149.8,91.3 149.8,70.7 135.5,62.4 Z" transform="translate(121.000000, 105.000000)"/><path fill="#F2F2F2" d="M117.6,69 L36.7,22.3 C27.5,17 15.9,23.6 15.9,34.3 L15.9,127.7 C15.9,138.4 27.4,145 36.7,139.7 L117.6,93 C126.8,87.7 126.8,74.3 117.6,69 Z" transform="translate(121.000000, 105.000000)"/></g></g></svg>